<?xml version="1.0" encoding="UTF-8"?><svg id="Capa_1" xmlns="http://www.w3.org/2000/svg" viewBox="0 0 422.76 247.75"><path d="M335.36,53.89c-6.97,3.21-10.87,10.07-12.67,16.3-2.42-1.66-3.06-4.34-2.75-6.79-3.16,1.12-4.45,15.86-5.77,15.84l-3.57-7.23-2.76,12.68-1.23-.58-2.61-4.4-6.07,16.3c-1.35.14-.87,0-1.15-.63-2.56-5.73-.86-16.93,1.56-22.81,4.25-10.32,12.17-18.23,24.55-22.37l6.43-1.72c-7.03-.35-13.84,1.02-20.09,3.62-.26-1.22.24-3.01,1.37-3.86.09-.34-.57-.31-.81-.22-1.15.4-9.52,5.58-10.19,4.97l2.75-5.66c.09-.34-.57-.31-.81-.22-1.73.6-12.29,7.81-12.94,7.24-.03-1.3.49-2.69,1.01-3.9.32-.74,1.69-1.69,2.21-2.26.31-.35,1.1-1.25.36-1.53l-14.31,8.15c-1.97.05,1.19-6.13,2.47-6.57l-.82-.22-11.29,7.24,2.47-6.79-14.04,7.24c1.8-4.47,6.42-8.75,10.75-11.76,14.33-9.98,34.02-11.84,51.6-7.15l8.66,3.97c.16-1.98-7.77-7.14-7.69-7.93s2.71-.33,1.92-1.13l-14.59-6.12c-.24-1.09.61-.54,1.38-.66,1.09-.16,2.21-.24,3.3-.46h5.77s-18.16-5.9-18.16-5.9c1.51-1.66,4.71-1.41,6.88-.9l5.22-.9-19.26-5.44c-.37-1.21.96-1.05,2-1.29,3.2-.72,6.36-.34,9.56-.74-4.84-4.11-11.61-6-17.06-9.29h9.08c.72,0,7.82,1.7,9.06,2.06,16.96,4.87,30.8,19.44,32.51,34.17l3.56-6.8c5.89-11.82,19.45-24.01,35.39-26.15,4.34-.58,13.16-1.06,18.32-.35,1.35.19,2.87.51,3.83,1.38l-17.61,5.66,7.14,1.14,3.32,1.57c-2.91,1.41-7.97,1.08-10.59,1.85-.49.14-.43.75-1.18.94-2.63.66-5.38,1.21-8.05,1.74l9.75,2.14.7,1.02c-4.11.57-8.08,1.65-12.09,2.53-.77.17-1.47-.28-1.88-.24-.21.02-1.99,1.71-3.64,1.34l10.45,2.48-18.16,3.4,6.94,1.31c.9-.2,1.04.71.77.95-.31.26-6.78,1.81-8.28,2.48-1.95.87-3.57,2-4.93,3.41,22.16-7.09,44.61-4.26,60.28,10.87,1.74,1.68,10,11.54,8.52,13.14l-19-10.86c-.75-.14-1.04.03-.81.66.88,2.44,4.8,5.38,3.57,8.38-2.85-1.23-4.08-3.63-6.31-5.22-.79-.56-1.85-.66-2.5-1.11-1.86-1.3-3.65-2.76-5.51-4.07-1.4-.09-.62.16-.4.78.93,2.7,2.92,5.23,2.33,8.27l-13.49-9.96,1.92,7.24c-2.19-1.4-4.16-3.1-6.34-4.52-2.04-1.32-5.22-2.53-6.33-4.08l-1.09.22,3.3,6.11c-.91.58-11.1-5.83-13.58-5.82-.58-.08-1.1-.3-.38.36.65.6,3.45,4.15,2.95,4.55l-12.66-3.16,10.83,3.99c19.3,8.33,29.07,29.49,21.64,46.27-1.44.14-.87-.02-1.1-.66-1.54-4.22-3.18-8.57-3.85-12.92-.96-.26-1.44,5.47-2.74,4.07l-3.86-14.94-1.6,6.6-1.69,1.09-4.41-14.94-2.12,7.53-1.17,1.52-4.42-14.49-1.05,4.79-1.69,1.09c-2.48-5.82-6.21-11.31-11.57-15.65l-.76-.16c-.55.06-.75.8-.89.87Z" style="fill:#0e5ca4;"/><path d="M393.71,113.67c.53,5.8-3.27,12-6.51,17.06-2.65,4.14-6.43,8.96-10.02,12.59-2.19,2.21-9.14,7.17-10.32,9.17-1.26,2.15-2.77,9.42-.12,10.99,2.32,1.38,8.64-4.33,10.19-5.88,3.01-3.01,2.8-4.81,4.57-8.01,3.4-6.15,11.49-14.87,20.74-14.21,2.84.2,3.17,1.86,5.43,2.71,3.2-2.54,5.98-4.49,8.61-.42-2.41,6.18-6.98,11.86-9.08,18.12-.46,1.37-2.09,5.83-.73,6.72.32.17.66.06,1,.07,2.02.02,4.94-2.77,6.34-4.07,2.26-2.09,4.47-4.66,5.78-7.25.41-.23,1.33,1.06,1.64,1.36-4.1,6.68-11.32,19.11-22.57,14.94-.49-.76-.93-1.38-1.1-2.26-.21-1.1.39-2.59-.27-3.62-3.68,4.11-8.9,8.49-15.69,6.34-1.06-1.08-2.84-1.74-3.3-3.62-.23-.92.41-2.33-.27-3.17-3.91,4.14-10.39,9.72-17.34,8.15-2.31-1.78-3.24-2.1-3.85-4.98-.2-.95.39-2.32-.27-3.17-4.11,5.14-14.98,11.88-22.3,7.7-2.06-1.18-1.89-1.44-2.75-3.17-.49-.98-.54-2.7-1.64-3.17-2.86,5.54-10.16,10.47-16.52,4.98-.08-.26.07-.63,0-.91l-1.09-3.62c-3.24,5.52-9.13,8.7-16.52,5.88-2.53-4.21,0-8.71,1.64-12.91,1.04-2.66,4.04-7.31,4.41-9.73.14-.93.21-2.11-.82-2.71-4.34-.19-16.93,22.3-18.54,26.18l-7.06.53c-.25-.33-.77-.61-1.1-.91.13-.19.74-2.41.28-2.71-2.73,2.52-6.31,5.26-10.74,4.07-1.29-1.08-2.98-1.61-2.75-3.62l-.82-3.17c-3.27,4.53-9,8.82-15.69,6.34-7.79-9.16,4.22-26.69,15.39-31.04,4.16-1.62,9.17-2.1,11.04,2.06.4.23,3.67-4.11,7.71-2.49.97.39.84,1.35,1.09,1.59-.41,3.73-12.26,22.12-9.91,24.45,1.01.25.96-.4,1.1-.45,10.5-3.66,11.85-18.04,17.37-25.34,2.8-1.84,5.67-.98,7.96.88l-2.75,5.89c1.77-1.08,2.88-2.8,4.4-4.08,2.99-2.52,6.73-5.29,11.42-3.73,1.85.62,1.7,1.71,2.34,2.37.23,1.81.16,4.12-.25,5.91-.82,3.59-8.99,15.16-7.2,17.66.87.95,1.13.06,1.39-.02,8.98-2.52,12.64-18.3,17.37-24.43,1.5-1.36,5.81-2.06,7.42-.7.72.61.35,1.28.53,1.58-1.68,4.78-10.21,17.6-9.36,21.95.1.5.37,1.12,1.1,1.15.72-.19,1.32-.54,1.92-.91,6.89-4.23,6.1-8.74,10.1-14.34,3.71-5.2,17.14-17.83,23.77-9.21,1.61,9.6-8.16,18.56-19.82,18.57-.03,2.5-.47,4.02,1.65,5.89,3.9,3.43,9.11-.37,12.13-2.93,6.65-5.64,7.72-14,10.99-21.3s11.97-24.87,20.2-28.21c5.31-2.16,7.34-1.01,10.08,2.63ZM388.21,118.65c.05-.23.88-.68.54-1.56l-1.36-.7c-2.2.4-8.64,10.55-9.91,12.69-2.48,4.16-6.34,10.89-7.98,15.17-.09.23-.15.74.26.67,1.46-.75,1.77-1.74,2.48-2.71,1.23-.03,1.74-.72,2.43-1.4,4.46-4.4,12.46-16.65,13.53-22.15ZM388.76,161.67c.36.17.27.55,1.22.4,4.44-.73,9.21-8.66,10.99-11.86.6-1.08,3.77-7.4,3.75-8.01-.05-2.07-2.41-1.96-4.31-1.51-4.73,1.12-8.87,7.18-10.65,10.71-1.24,2.46-4.5,8.59-1.01,10.27ZM352.98,142.2c-.2-.46-.06-1.03-.82-1.35-6.54,2.69-9.43,8.65-12.39,13.81.82.67,2.05-.43,2.75-.68,4.85-1.74,8.67-4.71,10.3-8.95.55-1.43.72-1.53.16-2.82ZM252.23,163.93c.44.23.41.53,1.3.46,5.18-.37,14.64-15.5,14.66-19.48,0-.69.13-1.46-.9-1.75-7.19-2-15.05,11.22-15.92,15.76-.31,1.6-.99,4.02.85,5Z" style="fill:#cc2829;"/><path d="M175.72,90.12c4.42,4.76,12.87.52,17.33-2.28,11.48-7.2,11.53-19.77,26.89-25.43,4.07-1.5,12.71-2.77,14.7,1.44h1.08c.55-2.67,6.64-3.47,9-2.29.64.32.59,1.04.92,1.39-1.51,6.79-7.14,12.61-9.33,19.27-.49,1.5-2.49,7.47-.03,7.9,4.68.81,13.27-11.28,16.81-13.58,1.24-.23,1.08,1.01,1.36,1.35-5.96,7.82-14.93,22.57-28.63,17.21-1.31-1.65-1.33-1.65-1.65-3.62-.13-.83.34-2.03-.27-2.71-5,5.21-13.84,10.43-21.75,5.88-1.25-1.32-2.13-1.48-2.75-3.62-.15-.51.56-2.73-.82-2.26-7.87,6.52-20.23,11.11-31.11,6.79-1.07-.84-2.75-2.49-3.3-3.62-.42-.86-.3-1.95-.82-2.71-5.27,5.87-13.29,11.47-22.3,6.79-2.17-3.03-1.65-4.34-.85-7.72,1.41-5.99,6.35-12.14,7.46-17.19.14-.63.53-1.01-.06-1.77-3.44-.64-6.09,1.9-8.22,3.79-4.25,3.78-8.35,9.68-11.28,14.27-1.09,1.71-4.62,9.28-5.49,9.98-1.16.93-6.7,1.16-8.54,1.35-.73-.53-1.71-.69-1.65-1.81.79-.67,1.95-3.44,1.93-4.53-5.15,4.45-11.65,8.3-19.55,6.34-.98-.82-2.32-1.88-2.64-3.04-1.2-4.4,2.46-11.86,4.42-16.1,1.36-2.94,4.97-10.65,6.91-12.88,2.57-2.96,8.1-2.57,10.58.33-3.42,6.11-7.35,12.38-9.92,18.79-.61,1.53-2.72,5.37-1.09,6.57,2.24,1.66,7.91-2.29,9.65-3.61,8.5-6.44,10.13-15.35,15.64-23.36,2.06-1.68,6.79-1.48,9.07-.14.85.5.72,1.17.87,1.3l-4.95,8.6c2.45-2.04,4.18-4.75,6.6-6.79,4.61-3.89,11.95-8.21,17.93-3.64.63.48.59,1.16.78,1.37,2.06,6.23-3.81,12.12-6.32,17.67-.85,1.87-3.18,6.34-.84,7.69s6.67-1.95,8.24-3.41c5.96-5.53,6.77-13,13.78-19.01,5.72-4.9,21.14-12.54,25.87-2.95.7,5.86-3.39,12.73-11.56,11.77-.23-.34-.87-.55-1.02-1.22-.76-3.33,6.91-5.4,6.53-8.75-.5-4.36-8.15.53-9.94,2.02-4.85,4.03-12.53,14.95-7.68,20.17ZM211.5,89.21c5.74,2.96,13.27-6.8,15.34-10.25s2.93-7.02,5.37-10.15c.45-.55-.27-.74-.34-.88-.28-.6-.68-1.53-1.47-1.74-7.79-.26-14.46,6.95-17.55,12.14-1.46,2.45-4.77,9.13-1.35,10.89Z" style="fill:#cc2829;"/><path d="M151.49,115.93c.86,5.4-2.23,10.79-5.03,15.56-4.56,7.76-10.45,14.56-18.08,20.45-1.02.78-3.53,1.77-4.03,2.6-1.39,2.32-3.68,10.31-.38,11.66,2.4.98,5.56-2.01,7.14-3.41,5.23-4.64,5.45-9.76,9.68-14.68,3.93-4.56,16.69-13.3,21.72-5.92,2.31-.54,2.19-2.35,5.26-2.69,2.71-.3,2.59.01,4.09,1.34-2.28,8.61-10,16.23-9.91,25.36.36,0,.74.02,1.1,0,3.91-.23,9.55-7.89,11.84-10.41,1.23-.26,1.12,1.13,1.37,1.36-3.91,6.06-10.32,16.84-20.37,14.94-1.41-1.12-2.19-2.03-2.75-3.62.27-.81-.35-2.19.55-3.17-1.44-.33-1.04.64-1.89,1.36-3.67,3.13-8.35,6.89-14.07,5.43-1.83-1.51-2.26-1.96-2.75-4.08-.24-1.04-.52-2.38,0-3.39-1.13-.93-1.17.51-1.9,1.13-4.04,3.5-9.08,8.44-15.72,6.33-2.92-2.29-3.27-2.08-3.85-5.89-.22-1.45-.58-1.92.28-3.61-3.91,3.89-9.2,10.56-16.05,10.83-1.73.07-3.19-.89-4.6-.42-1.98-1.42-3.29-2.75-3.85-4.98-.23-.91.41-2.34-.27-3.17-4.04,4.96-8.74,9.45-16.79,8.6-.32-.24-1.16-.21-1.67-.78-4.66-5.2,1.83-17.29,4.72-22.76,2.15-4.07,5.81-12.88,12.37-6.81-2.55,6.35-7.14,13.03-9.08,19.48-.29.97-1.72,4.14.02,4.53.49.13.7-.43.8-.46,2.57-.69,5.43-3.07,7.14-4.77,4.68-4.65,6.23-13.07,8.81-19.01,3.43-7.89,8.12-17.2,14.89-23.53,4.01-3.74,11.83-9.13,16.5-2.96.14,12.46-12.04,23.81-20.93,33.27-1.31,1.39-4.98,4.1-5.73,5.25-1.45,2.23-3.77,10.54-.86,12.2,2,1.14,4.73-.33,6.32-1.37,1.45-.95,8.48-7.8,9.33-9.08,1.79-2.69,2.78-7.89,4.16-11.07,3.97-9.1,9.09-20.43,17.09-27.6,4.57-4.1,10.05-7.28,15.4-2.05ZM147.09,120.91c.03-.6-.01-1.21,0-1.81-1.01-.11-1.72.47-2.47.91-5.35,3.17-16.15,21.85-17.89,27.4-.08.25-.16.74.26.67,1.19-.74,2.05-1.88,3.03-2.71,5.19-4.42,16.8-18.55,17.07-24.45ZM121.22,121.82c.1-2.22-.82-1.87-2.47-.9-5.09,2.98-14.72,21.12-16.79,26.5-.09.23-.15.74.26.67,1.18-.78,2.03-1.81,3.03-2.71,4.63-4.21,15.71-18.17,15.96-23.55ZM144.89,165.29c3.26-.19,5.13-1.9,7.06-3.93,2.15-2.24,8.57-12.6,8.35-15.09-.06-.7-.36-1.21-1.1-1.59-3.29-1.31-8.42,3.26-10.15,5.24-2.77,3.18-6.94,10.74-5.7,14.59.41,1.29,1.07.8,1.54.77Z" style="fill:#cc2829;"/><path d="M42.49,70.64c-7.87-2.94-6.37-12.63-2.64-17.8,9.1-12.62,27.99-14.11,44.2-13.45,10.27.42,24.31,3.59,34.02.35,2.43-.81,3.87-2.87,6.41-2.57.18.26-.06.74.04.86.57,7.68-7.84,9.75-15.66,9.98-5.52.17-12.19-2.11-16.53,1.35-1.83,1.45-14.6,19.22-13.49,19.92.73.03,1.47-.02,2.2,0,4.56.15,9.16-.49,13.44-1.84,2.47,2.1.92,2.73.33,4.55-1.41,1.92-5.97,3.62-8.53,3.62h-9.36c-.11,0-.45-.46-.84-.26-4.21,9.21-8.7,17.63-18.86,23.46-7.3,4.19-19.94,7.56-27.92,3.07s.99-12.48,4.32-10.8c.8.4,1.55,4.65,2.17,5.69,1.26,2.14,3.88,2.1,6.39,1.89,11.7-.99,17.02-13.53,20.7-21.23.32-.68,1.32-1.33,1.1-2.26l-10.46,1.81c-.08-.12-.82-.21-1.01-.76-1.66-4.68,10.37-7.8,14.68-7.02,3.71-7.56,8.57-14.91,15.5-20.76.65-.1,2.82-1.2,2.2-1.81-.43-.1-.66.45-.82.45h-19.27c-.64,0-5.91,1.29-6.87,1.6-8.68,2.78-12.41,11.87-9.37,18.78.55,1.25,1.42,2.46,2.2,3.62-2.72.97-5.69.51-8.26-.45Z" style="fill:#cc2829;"/><path d="M82.68,112.31c.71,7.82-2.86,15.49-6.34,22.64-6.06,12.46-22.96,39.44-39.47,43.15-4,.9-6.9.96-10.89-.13-12.1-7.55-1.44-25.48,4.31-34.27,2.95-4.52,13.34-16.57,13.31-20.98s-9.48-1.46-12.32-.4c-5.74,2.16-12.37,6.59-15.88,10.94-2.28,2.82-7.84,11.59-3.18,13.91,1.06.53,2.02.33,2.75.91-.92,3.94-6.73,4.43-10.46,2.72-1.51-1.34-2.86-1.93-3.71-3.97-5.84-14.04,21.62-30.47,36.53-31.75,7.41-.64,12.75-.93,16.17,4.93.4,2.9-.67,5.49-1.94,8.14-4.98,10.44-13.75,20.44-18.03,31.36-1.15,2.93-3.46,8.49-.4,10.77,3.9,2.89,9.52-1.27,12.4-3.61,11.36-9.21,26.52-31.61,27.72-44.67.36-3.99-2.34-8.09,2.31-10.78,3.64-2.1,4.91-1.49,7.12,1.1Z" style="fill:#cc2829;"/><path d="M278.66,193.82c2.86-5.23,5.83-10.42,8.34-15.78,3.97-.05,8.36-.99,12.31-.53.76.09.94-.25.82.68-2.54,5.21-5.21,10.41-7.71,15.62-.42.89-2.75,4.84-2.2,5.43,8.48-1,16.42-1.86,23.67-5.89-.82,1.55-1.6,1.94-3.35,2.9-6.07,3.35-14.25,4.28-21.4,4.82-5.39,15.34-9.67,30.91-13.01,46.65-2.25-.27-24.45.54-24.46-.71l23.13-45.5c-11.8.65-23.68,1.17-35.53.92-44.97-.96-89.68-7.95-134.84-3.64-8.23.79-18.25,2.15-26.03,4.4-2.35.68-8.6,3.47-10.29,3.3-.52-.05-.62-.34-.85-.46,5.15-2.79,11.04-4.57,17.05-5.69,1.24-.23,2.04.91,2.46-.61,9.93-1.24,22.06-3.02,33.08-3.66,36.4-2.11,72.63,3.16,108.97,4.09,15.66.4,31.51.02,47.11-.68.81-.45,2.21-4.73,2.73-5.68Z" style="fill:#fbca49;"/><path d="M241.78,128.16c13.33,22.02-19.11,58.86-49.28,44.92-3.52,2.97-7.61,3.53-12.38,3.99-1.03-.62-2.22-.66-2.89-1.92-2.83-5.36,4.52-3.9,8.58-5.84,10.82-5.16,14.57-31.86,27.07-41.59,2.65-2.06,7.47-4.38,10.18-1.36-10.3,11.48-14.1,25.91-22.48,38.34-.64.95-4.44,5.01-3.95,5.58.76.05,1.45.39,2.2.46,7.61.68,17.25-2.08,22.86-6.33,10.02-7.59,18.41-28.77,7.97-37.6-9.14-7.72-35.2-4.26-37.3,6.22-.55,2.76-.15,2.79,1.52,4.65.45.51,1.16,1.44,1.65,1.81-3.37.46-5.81-1-8.81-1.81-4.1-4.21-3.47-7.15-.12-11.65,10.71-14.43,45.61-13.66,55.17,2.14Z" style="fill:#cc2829;"/><path d="M278.66,193.82c-.52.95-1.92,5.23-2.73,5.68-15.61.7-31.45,1.08-47.11.68-36.34-.93-72.57-6.2-108.97-4.09-11.02.64-23.15,2.42-33.08,3.66-.42,1.51-1.21.38-2.46.61-6.01,1.12-11.89,2.9-17.05,5.69-3.41-1.81.32-7.34,3.03-9.06,4.94-3.12,16.99-4.83,23.29-5.75,60.34-8.79,120.91,5.43,182.07,3.04,1.04-.04,2.02-.22,3-.47Z" style="fill:#cc2829;"/><path d="M335.36,53.89c3.34-.01,2.83,3.63,2.77,5.68-.41,13.39-3.77,26.39-7.88,39.25-3.35,10.47-7.41,20.8-11.47,31.09-.63.34-7.54-1.15-8.2-1.52s-.53-.68-.45-1.25c.36-2.57,3.82-8.42,5.01-11.31,2.63-6.37,5.21-12.79,7.4-19.27,4.77-14.11,7.7-28.7,12.82-42.67Z" style="fill:#fbca49;"/><path d="M241.78,128.16c5.14,4.27,5.13,13.03,4.26,18.68-1.07,7-8.82,18.11-14.98,23-9.46,7.52-25.72,10.6-37.46,4.96-3.01,2.03-9.19,5.07-13.1,3.18-.62-.3-.33-.88-.38-.91,4.77-.46,8.86-1.02,12.38-3.99,30.16,13.94,62.61-22.9,49.28-44.92Z" style="fill:#fbca49;"/><path d="M25.98,177.97c3.99,1.08,6.89,1.03,10.89.13,16.51-3.72,33.42-30.7,39.47-43.15,3.48-7.15,7.05-14.82,6.34-22.64.43.5,1.23.52,1.53,1.68,1.23,4.66-2.92,14.15-4.98,18.81-5.32,12.06-22.31,39.57-36.07,45.5-6.14,2.64-11.46,3.25-17.18-.32Z" style="fill:#fbca49;"/><path d="M94.79,72c-.02.07.92-.22.13,1.23-1.06,1.96-5.73,3.75-8.12,3.75h-9.63c-4.14,12.11-14.5,25.34-30.36,28.23-5.76,1.05-14.46,1.73-17.53-3.32,7.98,4.5,20.62,1.12,27.92-3.07,10.16-5.83,14.65-14.24,18.86-23.46.39-.2.72.26.84.26h9.36c2.56,0,7.12-1.7,8.53-3.62Z" style="fill:#fbca49;"/><path d="M123.97,166.2c-3.3-1.34-1.01-9.34.38-11.66.5-.83,3.02-1.82,4.03-2.6,7.63-5.89,13.52-12.69,18.08-20.45,2.8-4.77,5.89-10.16,5.03-15.56,1.65,1.61,2.32,1.64,2.22,4.28-.33,8.32-13.39,26.07-20.92,31.73-1.51,1.13-5.7,3.12-6.55,4.13-1.76,2.09-2.39,7.58-2.27,10.13Z" style="fill:#fbca49;"/><path d="M393.71,113.67c.33.44,1.22.52,1.53,1.68.76,2.86-.45,5.85-1.52,8.52-3.29,8.16-10.44,17.34-17.34,23.77-5.07,4.72-8.61,4.86-9.57,12.05-.17,1.26-.04,2.53-.07,3.8-2.65-1.57-1.14-8.84.12-10.99,1.18-2,8.13-6.96,10.32-9.17,3.59-3.63,7.37-8.44,10.02-12.59,3.24-5.06,7.04-11.26,6.51-17.06Z" style="fill:#fbca49;"/><path d="M81.03,69.29c-.73-.02-1.47.02-2.2,0-1.11-.69,11.67-18.46,13.49-19.92,4.34-3.45,11.01-1.18,16.53-1.35,7.82-.23,16.24-2.3,15.66-9.98,2.31,2.92,2.6,5.18-.53,7.95-6.27,5.54-18.09,2.58-26.19,3.37-3.78.37-7.39,5.65-9.3,8.2-2.83,3.78-4.96,7.83-7.48,11.74Z" style="fill:#fbca49;"/><path d="M99.2,167.1c-2.91-1.66-.59-9.96.86-12.2.75-1.15,4.42-3.86,5.73-5.25,8.89-9.46,21.08-20.81,20.93-33.27,2.8,3.71.29,8.79-1.55,12.53-4.55,9.21-12.49,17.11-19.93,24.81-.98,1.02-2.79,1.97-3.52,2.99-1.79,2.49-2.47,7.5-2.52,10.38Z" style="fill:#fbca49;"/><path d="M33.14,170.27c-3.06-2.27-.75-7.84.4-10.77,4.28-10.92,13.05-20.92,18.03-31.36,1.27-2.65,2.34-5.24,1.94-8.14.04.07.72.19.96.78,1.62,3.93-1.26,8.86-3.24,12.52-6.44,11.93-17.87,23.31-18.09,36.97Z" style="fill:#fbca49;"/><path d="M198.84,170.72c-.75-.07-1.45-.41-2.2-.46-.49-.56,3.31-4.63,3.95-5.58,8.37-12.43,12.18-26.86,22.48-38.34,2.4,2.67-1.24,4.5-2.86,6.93-6.24,9.37-10.03,19.62-15.76,29.15-1.72,2.87-3.96,5.41-5.6,8.3Z" style="fill:#fbca49;"/><path d="M114.06,98.72c1.84-.19,7.38-.42,8.54-1.35.87-.7,4.4-8.27,5.49-9.98,2.93-4.59,7.03-10.49,11.28-14.27,2.12-1.89,4.78-4.43,8.22-3.79.58.75.19,1.13.06,1.77-7.95,2.8-13.4,11.1-17.35,17.2-1.39,2.15-4.55,9.19-6.06,10.41-.87.7-6.38,1.41-7.66,1.36-1.56-.07-1.71-.77-2.51-1.34Z" style="fill:#fbca49;"/><path d="M43.6,122.72c-4.92-1.31-11.16,1.33-15.37,3.43-8.61,4.29-16.52,12.35-16.01,21.02-4.67-2.32.9-11.09,3.18-13.91,3.51-4.35,10.14-8.78,15.88-10.94,2.84-1.07,12.28-3.98,12.32.4Z" style="fill:#fbca49;"/><path d="M301.78,146.27c-1.09.01-1.54.55-2.19,1.14-7.35,6.6-11.35,16.32-15.4,24.47-.78.43-5.61.29-6.8.1-1.81-.29-1.35-.82-2.03-1.7l7.06-.53c1.61-3.87,14.2-26.37,18.54-26.18,1.03.6.96,1.78.82,2.71Z" style="fill:#fbca49;"/><path d="M292.42,193.82l21.2-1.82c1.75-.09.49.95.27,1.36-7.25,4.02-15.19,4.89-23.67,5.89-.55-.6,1.77-4.55,2.2-5.43Z" style="fill:#cc2829;"/><path d="M48.55,67.47c-3.04-6.91.69-16,9.37-18.78.96-.31,6.23-1.6,6.87-1.6h19.27c.16,0,.39-.55.82-.45.62.61-1.54,1.71-2.2,1.81-2.9.44-7.54-.2-10.76-.02-11.49.63-21.01,3.45-22.77,13.88-.29,1.71.44,3.56-.61,5.16Z" style="fill:#fbca49;"/><path d="M229.66,126.8c-10.97-4.74-36.51-2.53-35.78,10.87-1.66-1.86-2.07-1.88-1.52-4.65,2.1-10.48,28.16-13.95,37.3-6.22Z" style="fill:#fbca49;"/><path d="M120.67,53.89c.91,5.25-4.88,7.68-10.46,6.34-.4-.42-1.15-.87-1.36-1.37-1.87-4.31,6.75-10.19,11.82-4.97Z" style="fill:#cc2829;"/><path d="M225.81,95.1c13.69,5.36,22.67-9.39,28.63-17.21,1.13,1.43,1.7,1.31.67,3.5-1.61,3.43-10.17,12.35-13.92,14.36-4.98,2.67-11.64,4.05-15.38-.65Z" style="fill:#fbca49;"/><path d="M94.24,129.97c.93,4.26-3.05,7.69-8.26,7.25-.39-.35-1.22-.54-1.67-1.11-3.4-4.37,4.82-10.77,9.92-6.14Z" style="fill:#cc2829;"/><path d="M337.56,128.16c.42,3.91-4.16,7.48-8.81,5.89-.2-.22-1.09-.37-1.37-.89-2.52-4.62,5.25-9.63,9.39-6.37.69.54.52.97.79,1.37Z" style="fill:#cc2829;"/><path d="M421.24,152.61c.52.5,1.39.65,1.51,1.65.32,2.59-8.86,12.49-11.7,14.2-4.15,2.51-9.65,3.36-12.39-.9,11.25,4.17,18.47-8.27,22.57-14.94Z" style="fill:#fbca49;"/><path d="M167.46,95.55c10.88,4.32,23.24-.27,31.11-6.79,1.38-.47.67,1.75.82,2.26-8.28,6.44-22.1,12.21-31.93,4.53Z" style="fill:#fbca49;"/><path d="M193.33,67.93c-10.58,2.02-18.52,13.57-17.62,22.19-4.85-5.22,2.83-16.14,7.68-20.17,1.78-1.48,9.43-6.37,9.94-2.02Z" style="fill:#fbca49;"/><path d="M176.27,157.14c.11.1,1.24-.38,1.35,1.29.18,2.51-7.12,11.18-9.61,12.98-3.76,2.72-8.16,3.82-12.12.67,10.05,1.9,16.46-8.88,20.37-14.94Z" style="fill:#fbca49;"/><path d="M236.27,90.12c-2.46-.43-.46-6.4.03-7.9,2.19-6.66,7.81-12.48,9.33-19.27,1.39,1.5,2.15.76,1.41,3.65-1.14,4.45-6.56,11.12-8.58,16.03-.95,2.31-1.72,5.07-2.18,7.49Z" style="fill:#fbca49;"/><path d="M103.05,92.38c-1.63-1.21.48-5.04,1.09-6.57,2.57-6.4,6.5-12.67,9.92-18.79,1.12,1.32,1.55,1.07.84,3.19l-11.85,22.17Z" style="fill:#fbca49;"/><path d="M358.48,139.03c.44.57.89.59,1.07,1.6,1.63,8.89-8.63,19.08-19.79,18.78l.55,4.08c-2.13-1.87-1.68-3.39-1.65-5.89,11.66,0,21.43-8.96,19.82-18.57Z" style="fill:#fbca49;"/><path d="M163.05,166.2c-.36.02-.74,0-1.1,0-.09-9.13,7.62-16.75,9.91-25.36,1.62,1.43,1.93,1.48,1.42,3.64-.84,3.56-6.14,10.73-7.9,14.8-.97,2.24-1.37,4.67-2.32,6.92Z" style="fill:#fbca49;"/><path d="M407.48,162.57c-.34,0-.68.1-1-.07-1.36-.89.26-5.35.73-6.72,2.1-6.26,6.67-11.94,9.08-18.12.1.15.92.2,1.1,1.13.6,2.99-5.99,12.32-7.57,15.97-1.08,2.49-2.05,5.16-2.34,7.81Z" style="fill:#fbca49;"/><path d="M151.49,91.48c-2.34-1.35-.01-5.82.84-7.69,2.51-5.54,8.38-11.44,6.32-17.67.23.24,1.38-.2,1.96,1.78,2.26,7.72-8.1,16.06-9.12,23.58Z" style="fill:#fbca49;"/><path d="M311.69,140.38s.8-.11,1.12.31c4.79,6.32-6.61,16.72-7.17,23.24-.26.07-.52.97-1.39.02-1.79-2.49,6.38-14.06,7.2-17.66.41-1.78.48-4.1.25-5.91Z" style="fill:#fbca49;"/><path d="M356.83,164.38c-3.06,2.02-5.28,4.54-8.87,6.06-3.95,1.67-12.71,3.57-13.7-1.53,7.31,4.18,18.19-2.55,22.3-7.7.66.85.07,2.22.27,3.17Z" style="fill:#fbca49;"/><path d="M79.38,166.65c-.1.03-.31.58-.8.46-1.74-.39-.32-3.55-.02-4.53,1.94-6.44,6.53-13.13,9.08-19.48.61.57,1.66.83,1.53,1.97l-9.79,21.58Z" style="fill:#fbca49;"/><path d="M164.15,91.93c-5.18,4.43-11.47,9.78-19.64,6.88-2.48-.88-2.31-1.16-3.48-2.8,9.01,4.68,17.02-.92,22.3-6.79.53.76.4,1.86.82,2.71Z" style="fill:#fbca49;"/><path d="M279.76,140.38c.05.05.88-.19,1.28.54s.44,1.48.26,2.29c-.62,2.85-5.67,10.11-7.31,13.49-1.21,2.49-2.52,5.02-3.05,7.68-.14.05-.09.71-1.1.45-2.36-2.33,9.49-20.72,9.91-24.45Z" style="fill:#fbca49;"/><path d="M331.51,165.74c-3.98,3.31-9.03,8.81-15.39,5.64-2.02-1-2.28-2.18-2.77-3.83,6.37,5.49,13.66.56,16.52-4.98,1.1.47,1.16,2.19,1.64,3.17Z" style="fill:#fbca49;"/><path d="M117.36,172.08c6.64,2.11,11.68-2.83,15.72-6.33.72-.62.77-2.06,1.9-1.13-.53,1.01-.25,2.35,0,3.39-4.29,3.29-10.79,9.03-17.06,5.18-.51-.32-.46-1.03-.56-1.11Z" style="fill:#fbca49;"/><path d="M313.34,166.65c-3.46,4.75-13.82,8.59-17.62,2.26,7.39,2.82,13.29-.37,16.52-5.88l1.09,3.62Z" style="fill:#fbca49;"/><path d="M322.7,163.48c-.73-.02-1.01-.65-1.1-1.15-.85-4.35,7.68-17.17,9.36-21.95.05.09.82.23,1.01.76.82,2.26-6.28,13.53-7.62,16.66-.78,1.82-1.57,3.71-1.64,5.67Z" style="fill:#fbca49;"/><path d="M113.51,166.2c-4.89,3.82-8.89,9.41-16.74,8.56-2.44-.26-2.28-.8-3.63-1.77,1.42-.47,2.88.49,4.6.42,6.84-.27,12.13-6.94,16.05-10.83-.86,1.69-.5,2.16-.28,3.61Z" style="fill:#fbca49;"/><path d="M224.16,91.48c-4.93,4.18-11.37,8.12-18.88,5.79-2.63-.81-2.04-1.46-3.14-2.62,7.91,4.54,16.75-.68,21.75-5.88.62.68.14,1.89.27,2.71Z" style="fill:#fbca49;"/><path d="M397.57,165.29c-3.19,2.77-10.37,7.62-15.02,4.55-.94-.62-.66-1.54-.94-1.84,6.79,2.15,12.01-2.23,15.69-6.34.67,1.03.06,2.52.27,3.62Z" style="fill:#fbca49;"/><path d="M112.41,96.91c-1.66,1.4-7.27,3.78-9.68,4.04-3.95.41-5.35-.05-7.94-2.22,7.9,1.96,14.4-1.89,19.55-6.34.02,1.08-1.13,3.85-1.93,4.53Z" style="fill:#fbca49;"/><path d="M89.29,168.01c-3.83,3.49-8.5,8.35-15.02,7.15-2.12-.39-1.69-1.44-2.05-1.71,8.05.84,12.75-3.64,16.79-8.6.68.83.04,2.25.27,3.17Z" style="fill:#fbca49;"/><path d="M378.3,164.38c-4.51,3.17-8.19,7.71-15.01,6.68-2.46-.37-2.15-1.35-2.6-1.7,6.95,1.57,13.44-4.01,17.34-8.15.68.84.05,2.25.27,3.17Z" style="fill:#fbca49;"/><path d="M244.53,170.27c6.7,2.48,12.42-1.8,15.69-6.34l.82,3.17c-4.76,3.62-11.13,9.5-16.51,3.17Z" style="fill:#fbca49;"/><path d="M137.73,172.08c5.72,1.46,10.41-2.3,14.07-5.43.85-.73.45-1.69,1.89-1.36-.9.97-.28,2.35-.55,3.17-.46,1.42-6.31,4.89-8.23,5.23-3.77.67-4.73.42-7.19-1.61Z" style="fill:#fbca49;"/><path d="M187.83,77.89c8.17.96,12.27-5.91,11.56-11.77,2.35,4.77.57,10.35-5.12,12.77-3.22,1.37-4.7,1.57-6.44-1Z" style="fill:#fbca49;"/><path d="M110.21,60.23c5.58,1.34,11.37-1.09,10.46-6.34.5.52,1.32,1.01,1.53,1.7,1.41,4.59-6.93,10-11.99,4.64Z" style="fill:#fbca49;"/><path d="M94.24,129.97c5.3,4.81-3.31,11.43-7.88,8.17-.51-.36-.32-.87-.38-.92,5.21.45,9.18-2.98,8.26-7.25Z" style="fill:#fbca49;"/><path d="M328.75,134.04c4.65,1.59,9.23-1.98,8.81-5.89,3.7,5.68-3.94,10.49-8.02,7.26-.67-.53-.58-1.14-.79-1.37Z" style="fill:#fbca49;"/><path d="M14.97,148.08c.28.22.44.19.54.66,1.31,5.85-5.96,6.47-10.29,3.26-.46-.34-.48-1-.72-1.21,3.72,1.71,9.54,1.22,10.46-2.72Z" style="fill:#fbca49;"/><path d="M274.25,169.37c-.1.15-2.75,2.02-3.11,2.2-1.71.83-4.25,1.37-6.13.64-1.27-.49-1.01-1.3-1.22-1.48,4.43,1.19,8.01-1.56,10.74-4.07.46.3-.15,2.53-.28,2.71Z" style="fill:#fbca49;"/><path d="M53.5,76.98l10.46-1.81c.22.94-.78,1.59-1.1,2.26-2.38-1.6-6.18,1.3-8.45.94-.64-.23-.58-.95-.91-1.39Z" style="fill:#fbca49;"/><path d="M50.75,71.1c.23.34.88.69,1.09,1.13-.18,1.73-9.91,1.74-9.35-1.59,2.57.96,5.54,1.43,8.26.45Z" style="fill:#fbca49;"/><path d="M138.28,66.57c.18.16,1.9.12,1.65,1.81-2.42,2.04-4.16,4.76-6.6,6.79l4.95-8.6Z" style="fill:#fbca49;"/><path d="M195.53,139.48c.06.04,2.23-.05,1.1.9-1.55,1.31-7.12.05-8.78-1.15-.69-.5-.74-1.16-1.12-1.56,2.99.81,5.43,2.28,8.81,1.81Z" style="fill:#fbca49;"/><path d="M297.93,141.74c-1.52,1.28-2.63,2.99-4.4,4.08l2.75-5.89c.68.56.94,1.3,1.65,1.81Z" style="fill:#fbca49;"/><path d="M388.21,118.65c-7.95,6.38-10.55,16.1-15.96,23.55-.71.97-1.02,1.96-2.48,2.71-.42.07-.35-.44-.26-.67,1.64-4.28,5.51-11.01,7.98-15.17,1.27-2.13,7.71-12.29,9.91-12.69l1.36.7c.34.88-.5,1.33-.54,1.56Z" style="fill:#fbca49;"/><path d="M404.72,142.2c-9.85.92-16.16,12.13-15.96,19.47-3.49-1.68-.23-7.8,1.01-10.27,1.78-3.53,5.92-9.59,10.65-10.71,1.9-.45,4.26-.56,4.31,1.51Z" style="fill:#fbca49;"/><path d="M268.2,144.91c-9.97.64-15.33,11.91-15.96,19.02-1.85-.99-1.16-3.4-.85-5,.87-4.55,8.73-17.76,15.92-15.76,1.03.29.91,1.06.9,1.75Z" style="fill:#fbca49;"/><path d="M352.98,142.2c-3.35,2.18-6.24,4.79-8.35,7.85l-2.11,3.93c-.7.25-1.93,1.36-2.75.68,2.96-5.16,5.84-11.12,12.39-13.81.76.32.62.89.82,1.35Z" style="fill:#fbca49;"/><path d="M231.87,67.93c-11.69.29-20.14,12.61-20.37,21.28-3.42-1.76-.11-8.44,1.35-10.89,3.09-5.19,9.76-12.4,17.55-12.14.79.22,1.19,1.14,1.47,1.74Z" style="fill:#fbca49;"/><path d="M130.02,145.37c-.98.83-1.84,1.97-3.03,2.71-.42.07-.34-.42-.26-.67,1.74-5.55,12.54-24.23,17.89-27.4.74-.44,1.45-1.02,2.47-.91,0,.6.03,1.21,0,1.81-7.83,6.55-12.62,16.07-17.07,24.45Z" style="fill:#fbca49;"/><path d="M121.22,121.82c-1.6.37-3.15,2.57-4.07,3.67-4.92,5.91-8.82,13.18-11.9,19.87-1,.91-1.85,1.94-3.03,2.71-.42.07-.35-.44-.26-.67,2.06-5.37,11.69-23.52,16.79-26.5,1.66-.97,2.58-1.31,2.47.9Z" style="fill:#fbca49;"/><path d="M160.3,146.27c-9.5,1.05-15.85,11.77-15.41,19.02-.47.03-1.12.52-1.54-.77-1.24-3.85,2.93-11.41,5.7-14.59,1.73-1.98,6.86-6.56,10.15-5.24.74.38,1.04.89,1.1,1.59Z" style="fill:#fbca49;"/></svg>